<?xml version="1.0" encoding="UTF-8" standalone="no"?>
<!-- Generator: Adobe Illustrator 14.0.0, SVG Export Plug-In . SVG Version: 6.00 Build 43363)  -->

<svg
   xmlns:dc="http://purl.org/dc/elements/1.1/"
   xmlns:cc="http://creativecommons.org/ns#"
   xmlns:rdf="http://www.w3.org/1999/02/22-rdf-syntax-ns#"
   xmlns:svg="http://www.w3.org/2000/svg"
   xmlns="http://www.w3.org/2000/svg"
   xmlns:sodipodi="http://sodipodi.sourceforge.net/DTD/sodipodi-0.dtd"
   xmlns:inkscape="http://www.inkscape.org/namespaces/inkscape"
   version="1.1"
   x="0px"
   y="0px"
   width="28px"
   height="32px"
   viewBox="0 0 28 32"
   enable-background="new 0 0 28 32"
   xml:space="preserve"
   id="svg2"
   inkscape:version="0.48.2 r9819"
   sodipodi:docname="spin.svg"><metadata
   id="metadata16"><rdf:RDF><cc:Work
       rdf:about=""><dc:format>image/svg+xml</dc:format><dc:type
         rdf:resource="http://purl.org/dc/dcmitype/StillImage" /><dc:title></dc:title></cc:Work></rdf:RDF></metadata><defs
   id="defs14" /><sodipodi:namedview
   pagecolor="#ffffff"
   bordercolor="#666666"
   borderopacity="1"
   objecttolerance="10"
   gridtolerance="10"
   guidetolerance="10"
   inkscape:pageopacity="0"
   inkscape:pageshadow="2"
   inkscape:window-width="817"
   inkscape:window-height="480"
   id="namedview12"
   showgrid="false"
   inkscape:zoom="7.375"
   inkscape:cx="14"
   inkscape:cy="16"
   inkscape:window-x="506"
   inkscape:window-y="182"
   inkscape:window-maximized="0"
   inkscape:current-layer="svg2" />
<g
   id="Layer_1">
</g>
<g
   id="reload_x5F_alt2_x5F_28x32"
   style="fill:#ffd012;fill-opacity:1">
	<g
   id="g6"
   style="fill:#ffd012;fill-opacity:1">
		<path
   d="M23.883,6.086l-2.82,2.831C22.953,10.808,24,13.323,24,16c0,5.516-4.484,10-10,10v-2l-4,4l4,4v-2c7.719,0,14-6.281,14-14    C28,12.255,26.539,8.734,23.883,6.086z"
   id="path8"
   style="fill:#ffd012;fill-opacity:1" />
		<path
   d="M18,4l-4-4v2C6.281,2,0,8.281,0,16c0,3.745,1.461,7.266,4.117,9.914l2.82-2.831C5.047,21.192,4,18.677,4,16    C4,10.484,8.484,6,14,6v2L18,4z"
   id="path10"
   style="fill:#ffd012;fill-opacity:1" />
	</g>
</g>
</svg>