<?xml version="1.0" encoding="UTF-8" standalone="no"?>
<!-- Generator: Adobe Illustrator 14.0.0, SVG Export Plug-In . SVG Version: 6.00 Build 43363)  -->

<svg
   xmlns:dc="http://purl.org/dc/elements/1.1/"
   xmlns:cc="http://creativecommons.org/ns#"
   xmlns:rdf="http://www.w3.org/1999/02/22-rdf-syntax-ns#"
   xmlns:svg="http://www.w3.org/2000/svg"
   xmlns="http://www.w3.org/2000/svg"
   xmlns:sodipodi="http://sodipodi.sourceforge.net/DTD/sodipodi-0.dtd"
   xmlns:inkscape="http://www.inkscape.org/namespaces/inkscape"
   version="1.1"
   id="Layer_1"
   x="0px"
   y="0px"
   width="31.992px"
   height="32px"
   viewBox="0 0 31.992 32"
   style="enable-background:new 0 0 31.992 32;"
   xml:space="preserve"
   inkscape:version="0.48.2 r9819"
   sodipodi:docname="magnifying_glass_alt.svg"><metadata
   id="metadata11"><rdf:RDF><cc:Work
       rdf:about=""><dc:format>image/svg+xml</dc:format><dc:type
         rdf:resource="http://purl.org/dc/dcmitype/StillImage" /><dc:title></dc:title></cc:Work></rdf:RDF></metadata><defs
   id="defs9" /><sodipodi:namedview
   pagecolor="#ffffff"
   bordercolor="#666666"
   borderopacity="1"
   objecttolerance="10"
   gridtolerance="10"
   guidetolerance="10"
   inkscape:pageopacity="0"
   inkscape:pageshadow="2"
   inkscape:window-width="1854"
   inkscape:window-height="1056"
   id="namedview7"
   showgrid="false"
   inkscape:zoom="7.375"
   inkscape:cx="-12.478576"
   inkscape:cy="16"
   inkscape:window-x="66"
   inkscape:window-y="24"
   inkscape:window-maximized="1"
   inkscape:current-layer="Layer_1" />
<g
   id="g3"
   style="fill:#ffd012;fill-opacity:1">
	<path
   style="fill:#ffd012;fill-opacity:1"
   d="M20.127,0C13.594,0,8.268,5.32,8.268,11.864c0,1.565,0.326,3.05,0.873,4.417L0,25.427L6.57,32   l9.148-9.151c1.361,0.553,2.846,0.875,4.408,0.875c6.545,0,11.865-5.322,11.865-11.859C31.992,5.32,26.672,0,20.127,0z    M20.127,19.727c-4.33,0-7.861-3.531-7.861-7.862c0-4.338,3.531-7.869,7.861-7.869c4.342,0,7.873,3.531,7.873,7.869   C28,16.195,24.469,19.727,20.127,19.727z"
   id="path5" />
</g>
</svg>